<svg width="18" height="24" viewBox="0 0 18 24" fill="none" xmlns="http://www.w3.org/2000/svg">
<path fill-rule="evenodd" clip-rule="evenodd" d="M7.2188 24H1.2188C1.12505 24 1.0313 23.9531 0.98442 23.9062C0.750045 23.625 0.468795 23.0156 0.42192 20.3906C0.375045 18.75 0.42192 16.875 0.42192 15.6562C0.468795 15.0938 0.468795 14.6719 0.468795 14.3906C0.468795 13.9219 0.468795 13.4062 0.42192 12.9375C0.375045 11.5781 0.375045 10.3125 0.656295 9.1875C0.937545 8.01562 1.64067 7.21875 2.7188 6.75V5.95312C2.7188 5.76562 2.85942 5.625 3.04692 5.625H5.3438C5.5313 5.625 5.67192 5.76562 5.67192 5.95312L5.7188 6.75C8.10942 7.73438 8.01567 10.0781 7.92192 12.7969V20.25C7.9688 21.5625 8.01567 23.0625 7.50005 23.8594C7.4063 23.9531 7.31255 24 7.2188 24ZM6.42192 20.25H1.92192C1.73442 20.25 1.5938 20.1094 1.5938 19.9219V12.75C1.5938 12.5625 1.73442 12.4219 1.92192 12.4219H6.37505C6.56255 12.4219 6.70317 12.5625 6.70317 12.75L6.75005 19.9219C6.75005 20.0156 6.70317 20.1094 6.6563 20.1562C6.56255 20.2031 6.51567 20.25 6.42192 20.25ZM2.25005 19.5938H6.0938L6.04692 13.0781H2.25005V19.5938ZM2.7188 5.01562V0.328125C2.7188 0.140625 2.85942 0 3.04692 0H5.3438C5.5313 0 5.67192 0.140625 5.67192 0.328125V5.01562C5.57817 4.96875 5.43755 4.96875 5.3438 4.96875H3.04692C2.9063 4.96875 2.81255 4.96875 2.7188 5.01562ZM14.1094 19.8281C12.9375 19.8281 11.7657 19.2656 11.0625 18.3281C10.5469 17.625 10.4063 16.5469 10.4532 15.375C11.625 15.7031 12.8438 15.8438 14.0625 15.75C15.1875 15.6562 16.3594 15.7969 17.625 16.125C17.5782 16.7812 17.4844 17.3906 17.2032 17.9531C16.7344 19.0312 15.75 19.6875 14.5313 19.8281H14.1094ZM10.5469 14.7188C10.6407 13.7812 10.7813 12.8438 10.9688 12C11.0157 11.7656 11.0625 11.4844 11.1094 11.2969C11.1094 11.1094 11.25 11.0156 11.4375 11.0156H16.5938C16.7344 11.0156 16.875 11.1094 16.9219 11.2969C16.9688 11.625 17.0625 12 17.1094 12.4219C17.3438 13.3594 17.5313 14.3906 17.625 15.4219C16.3594 15.1406 15.1407 15 14.0157 15.0938C12.7969 15.1406 11.625 15.0469 10.5469 14.7188ZM14.0625 24C13.875 24 13.7344 23.8594 13.7344 23.6719V20.4844H14.3907V23.6719C14.3907 23.8594 14.25 24 14.0625 24Z" fill="white"/>
<path fill-rule="evenodd" clip-rule="evenodd" d="M16.3594 24H11.7656C11.5781 24 11.4375 23.8594 11.4375 23.6719C11.4375 23.4844 11.5781 23.3438 11.7656 23.3438H16.3594C16.5469 23.3438 16.6875 23.4844 16.6875 23.6719C16.6875 23.8594 16.5469 24 16.3594 24Z" fill="white"/>
</svg>
