<svg width="10" height="18" viewBox="0 0 10 18" fill="none" xmlns="http://www.w3.org/2000/svg">
<path d="M0.499954 8.99999C0.499852 8.90148 0.519214 8.80393 0.556925 8.71294C0.594637 8.62194 0.649954 8.53929 0.719703 8.46974L8.2197 0.969736C8.51277 0.676673 8.98733 0.676673 9.2802 0.969736C9.57308 1.2628 9.57327 1.73736 9.2802 2.03024L2.31045 8.99999L9.2802 15.9697C9.57326 16.2628 9.57326 16.7374 9.2802 17.0302C8.98714 17.3231 8.51258 17.3233 8.2197 17.0302L0.719703 9.53024C0.649954 9.46068 0.594637 9.37803 0.556925 9.28703C0.519214 9.19604 0.499852 9.09849 0.499954 8.99999Z" fill="#0C94EA"/>
</svg>
