<svg width="17" height="20" viewBox="0 0 17 20" fill="none" xmlns="http://www.w3.org/2000/svg">
<path d="M14 6.5C13 6.5 13.5 6.675 13.5 5.75C13.4994 5.16962 13.2735 4.61214 12.87 4.195C12.9961 3.85303 13.0263 3.48312 12.9574 3.12522C12.8885 2.76732 12.7232 2.43505 12.4792 2.1643C12.2352 1.89355 11.9219 1.69461 11.5731 1.58899C11.2242 1.48337 10.8532 1.47507 10.5 1.565C9.89366 0.939954 9.07611 0.563381 8.20701 0.508832C7.33792 0.454282 6.4797 0.725673 5.79998 1.27C5.50837 1.11276 5.18545 1.02231 4.85459 1.00521C4.52373 0.988107 4.19321 1.04477 3.88694 1.17111C3.58067 1.29744 3.30632 1.49029 3.08374 1.73569C2.86116 1.98108 2.69592 2.27289 2.59998 2.59C2.16563 2.69385 1.76331 2.90249 1.42819 3.19768C1.09306 3.49287 0.83532 3.86564 0.677483 4.28341C0.519646 4.70119 0.466515 5.15126 0.522733 5.5943C0.57895 6.03735 0.742804 6.45988 0.999981 6.825V18C0.999981 18.3978 1.15802 18.7794 1.43932 19.0607C1.72062 19.342 2.10216 19.5 2.49998 19.5H11.5C11.8978 19.5 12.2793 19.342 12.5606 19.0607C12.8419 18.7794 13 18.3978 13 18V14.5H14C14.3283 14.5 14.6534 14.4353 14.9567 14.3097C15.26 14.1841 15.5356 13.9999 15.7677 13.7678C15.9999 13.5356 16.184 13.26 16.3097 12.9567C16.4353 12.6534 16.5 12.3283 16.5 12V9C16.5 8.67169 16.4353 8.3466 16.3097 8.04329C16.184 7.73998 15.9999 7.46438 15.7677 7.23223C15.5356 7.00009 15.26 6.81594 14.9567 6.6903C14.6534 6.56466 14.3283 6.5 14 6.5ZM3.07498 3.5C3.18666 3.48868 3.29127 3.44011 3.37199 3.36211C3.45271 3.28411 3.50484 3.18122 3.51998 3.07C3.5486 2.85252 3.63462 2.64658 3.76921 2.47337C3.9038 2.30015 4.08209 2.16591 4.28576 2.08444C4.48943 2.00298 4.71112 1.97723 4.92803 2.00984C5.14495 2.04245 5.34927 2.13225 5.51998 2.27C5.61679 2.35114 5.74072 2.39263 5.86686 2.38613C5.993 2.37964 6.11202 2.32565 6.19998 2.235C6.44883 1.98125 6.74892 1.78348 7.08023 1.65487C7.41155 1.52627 7.76648 1.46978 8.12136 1.48918C8.47623 1.50858 8.82289 1.60342 9.13821 1.76738C9.45354 1.93133 9.73028 2.16064 9.94998 2.44C10.0208 2.53043 10.1206 2.59371 10.2326 2.6192C10.3446 2.6447 10.462 2.63086 10.565 2.58C10.7608 2.49238 10.9796 2.47008 11.1891 2.51637C11.3986 2.56267 11.5877 2.67511 11.7284 2.83709C11.869 2.99907 11.9539 3.202 11.9704 3.41591C11.9869 3.62982 11.9342 3.84336 11.82 4.025C11.7482 4.13363 11.7216 4.26597 11.7459 4.3939C11.7702 4.52182 11.8434 4.63522 11.95 4.71C13.03 5.46 12.31 7.145 11.145 6.97C11.0659 6.94555 10.9821 6.9411 10.9009 6.95704C10.8197 6.97299 10.7437 7.00883 10.6798 7.06136C10.6159 7.11389 10.566 7.18146 10.5346 7.25801C10.5032 7.33457 10.4913 7.41771 10.5 7.5V8C10.5012 8.07397 10.486 8.14729 10.4554 8.21466C10.4249 8.28204 10.3797 8.3418 10.3233 8.38963C10.2669 8.43745 10.2005 8.47216 10.129 8.49125C10.0576 8.51034 9.98275 8.51332 9.90998 8.5C9.17498 8.38 9.66998 7.055 9.44498 6.605C9.35706 6.28934 9.1682 6.01115 8.90726 5.81295C8.64632 5.61476 8.32766 5.50746 7.99998 5.50746C7.67231 5.50746 7.35364 5.61476 7.0927 5.81295C6.83176 6.01115 6.6429 6.28934 6.55498 6.605C6.47998 6.76 6.49998 6.68 6.49998 9.005C6.49202 9.13761 6.43172 9.26162 6.33232 9.34976C6.23293 9.43791 6.10259 9.48295 5.96998 9.475C5.83737 9.46704 5.71336 9.40673 5.62521 9.30734C5.53707 9.20794 5.49202 9.07761 5.49998 8.945C5.49998 6.585 5.60998 6.345 5.16498 6.19C4.53998 5.95 4.49998 7 3.24998 7C3.02017 7.01149 2.79034 6.9776 2.57362 6.90027C2.35691 6.82294 2.15754 6.70368 1.98692 6.54931C1.64232 6.23753 1.43569 5.80163 1.41248 5.3375C1.38927 4.87337 1.55139 4.41903 1.86317 4.07443C2.17495 3.72984 2.61085 3.5232 3.07498 3.5ZM12 18C12 18.1326 11.9473 18.2598 11.8535 18.3536C11.7598 18.4473 11.6326 18.5 11.5 18.5H2.49998C2.36737 18.5 2.2402 18.4473 2.14643 18.3536C2.05266 18.2598 1.99998 18.1326 1.99998 18V7.705C2.11044 7.75835 2.22398 7.8051 2.33998 7.845C2.56998 7.93 2.49998 7.03 2.49998 16C2.49998 16.3978 2.65802 16.7794 2.93932 17.0607C3.22062 17.342 3.60216 17.5 3.99998 17.5H9.99998C10.3978 17.5 10.7793 17.342 11.0606 17.0607C11.3419 16.7794 11.5 16.3978 11.5 16V8C11.5 7.95 11.46 8 11.7 7.955C12.125 7.88 12 6.895 12 18ZM15.5 12C15.5 12.3978 15.3419 12.7794 15.0606 13.0607C14.7793 13.342 14.3978 13.5 14 13.5H13V7.5H14C14.3978 7.5 14.7793 7.65803 15.0606 7.93934C15.3419 8.22064 15.5 8.60217 15.5 9V12Z" fill="white"/>
</svg>
