<svg width="20" height="22" viewBox="0 0 20 22" fill="none" xmlns="http://www.w3.org/2000/svg">
<path d="M10.0002 0C8.01106 0 6.10341 0.790176 4.69688 2.1967C3.29036 3.60322 2.50018 5.51088 2.50018 7.5V13.35L0.840184 15.85C0.641215 16.1568 0.528358 16.5114 0.513422 16.8767C0.498486 17.2421 0.58202 17.6047 0.755283 17.9267C0.928547 18.2487 1.18517 18.5182 1.4983 18.707C1.81142 18.8959 2.16955 18.997 2.53518 19H17.4652C17.8332 18.9988 18.194 18.898 18.5094 18.7085C18.8248 18.5189 19.083 18.2475 19.2568 17.9231C19.4305 17.5987 19.5133 17.2333 19.4963 16.8657C19.4792 16.4981 19.3631 16.142 19.1602 15.835L17.5002 13.35V7.5C17.5002 5.51088 16.71 3.60322 15.3035 2.1967C13.897 0.790176 11.9893 0 10.0002 0ZM10.0002 22C10.62 21.9993 11.2243 21.8066 11.7302 21.4485C12.2361 21.0904 12.6186 20.5844 12.8252 20H7.17518C7.38178 20.5844 7.7643 21.0904 8.27016 21.4485C8.77602 21.8066 9.38039 21.9993 10.0002 22Z" fill="#032840"/>
</svg>
