<svg width="14" height="14" viewBox="0 0 14 14" fill="none" xmlns="http://www.w3.org/2000/svg">
<path d="M8.28259 7.01148L13.734 1.55998C14.0887 1.20538 14.0887 0.632019 13.734 0.277458C13.3794 -0.0771458 12.806 -0.0771458 12.4515 0.277458L6.99994 5.72892L1.54861 0.277458C1.19383 -0.0771458 0.620684 -0.0771458 0.26608 0.277458C-0.0886934 0.632062 -0.0886934 1.20538 0.26608 1.55998L5.71737 7.01148L0.266123 12.4629C-0.0886509 12.8175 -0.0886509 13.3909 0.266123 13.7455C0.350236 13.8298 0.450189 13.8967 0.560238 13.9423C0.670287 13.9879 0.788262 14.0113 0.907386 14.0112C1.13954 14.0112 1.37177 13.9223 1.54865 13.7455L6.99994 8.29401L12.4515 13.7455C12.5356 13.8298 12.6356 13.8967 12.7456 13.9423C12.8556 13.9879 12.9736 14.0113 13.0927 14.0112C13.3249 14.0112 13.5571 13.9223 13.734 13.7455C14.0887 13.3909 14.0887 12.8175 13.734 12.4629L8.28259 7.01148Z" fill="#032840"/>
</svg>
