<svg width="20" height="22" viewBox="0 0 20 22" fill="none" xmlns="http://www.w3.org/2000/svg">
<path d="M6.57153 6.71436C7.04296 6.71436 7.42868 6.32864 7.42868 5.85721V5.00007C7.42868 3.57721 8.57725 2.42864 10.0001 2.42864C11.423 2.42864 12.5715 3.57721 12.5715 5.00007V5.85721C12.5715 6.32864 12.9572 6.71436 13.4287 6.71436C13.9001 6.71436 14.2858 6.32864 14.2858 5.85721V5.00007C14.2858 2.63436 12.3658 0.714355 10.0001 0.714355C7.63439 0.714355 5.71439 2.63436 5.71439 5.00007V5.85721C5.71439 6.32864 6.1001 6.71436 6.57153 6.71436ZM10.0001 13.5715C7.63439 13.5715 5.71439 11.6515 5.71439 9.28578C5.71439 8.81436 6.1001 8.42864 6.57153 8.42864C7.04296 8.42864 7.42868 8.81436 7.42868 9.28578C7.42868 10.7086 8.57725 11.8572 10.0001 11.8572C11.423 11.8572 12.5715 10.7086 12.5715 9.28578C12.5715 8.81436 12.9572 8.42864 13.4287 8.42864C13.9001 8.42864 14.2858 8.81436 14.2858 9.28578C14.2858 11.6515 12.3658 13.5715 10.0001 13.5715ZM19.4287 16.0572L18.5715 7.5715C18.5715 6.14864 17.423 5.00007 16.0001 5.00007H4.0001C3.332 4.99732 2.68925 5.25565 2.20889 5.72C1.72853 6.18435 1.44856 6.81797 1.42868 7.48578L0.571533 16.1429C0.571533 18.9801 2.87725 21.2858 5.71439 21.2858H14.2858C17.1401 21.2772 19.4372 18.9544 19.4287 16.1001V16.0572Z" fill="#0C94EA"/>
</svg>
