<svg width="22" height="16" viewBox="0 0 22 16" fill="none" xmlns="http://www.w3.org/2000/svg">
<path d="M13.192 7.192H19.808V2.577H13.192V7.192ZM16.5 6.058L14.039 4.346V3.462L16.5 5.173L18.962 3.462V4.346L16.5 6.058ZM1.616 15.616C1.15533 15.616 0.771 15.4617 0.463 15.153C0.155 14.8443 0.000666667 14.46 0 14V2C0 1.54 0.154333 1.15567 0.463 0.847003C0.771667 0.538336 1.15567 0.384003 1.615 0.384003H20.385C20.845 0.384003 21.2293 0.538336 21.538 0.847003C21.8467 1.15567 22.0007 1.54 22 2V14C22 14.46 21.846 14.8443 21.538 15.153C21.23 15.4617 20.8457 15.616 20.385 15.616H1.616ZM8 10.23C8.69267 10.23 9.28267 9.98634 9.77 9.499C10.2573 9.01167 10.5007 8.42167 10.5 7.729C10.4993 7.03634 10.256 6.447 9.77 5.961C9.284 5.475 8.694 5.23134 8 5.23C7.306 5.22867 6.716 5.472 6.23 5.96C5.744 6.448 5.50067 7.038 5.5 7.73C5.49933 8.422 5.74267 9.01167 6.23 9.499C6.71733 9.98634 7.30733 10.2307 8 10.23ZM2.216 14.615H13.785C13.085 13.711 12.2337 12.985 11.231 12.437C10.2283 11.889 9.15133 11.6153 8 11.616C6.84867 11.6167 5.772 11.8907 4.77 12.438C3.768 12.9853 2.91667 13.7103 2.216 14.615Z" fill="#032840"/>
</svg>
