<svg width="16" height="16" viewBox="0 0 16 16" fill="none" xmlns="http://www.w3.org/2000/svg">
<path fill-rule="evenodd" clip-rule="evenodd" d="M14.851 2.4512C14.9366 2.36579 15.0044 2.26437 15.0507 2.15274C15.0971 2.0411 15.1209 1.92143 15.121 1.80057C15.1211 1.6797 15.0974 1.56001 15.0512 1.44831C15.005 1.33662 14.9373 1.23512 14.8518 1.1496C14.7664 1.06409 14.665 0.996229 14.5534 0.949908C14.4417 0.903586 14.3221 0.879706 14.2012 0.879632C14.0803 0.879558 13.9606 0.90329 13.849 0.949475C13.7373 0.995659 13.6358 1.06339 13.5502 1.1488L7.99984 6.6992L2.45104 1.1488C2.27833 0.976093 2.04409 0.879066 1.79984 0.879066C1.55559 0.879066 1.32135 0.976093 1.14864 1.1488C0.975933 1.32151 0.878906 1.55575 0.878906 1.8C0.878906 2.04425 0.975933 2.27849 1.14864 2.4512L6.69904 8L1.14864 13.5488C1.06313 13.6343 0.99529 13.7358 0.949008 13.8476C0.902727 13.9593 0.878906 14.0791 0.878906 14.2C0.878906 14.3209 0.902727 14.4407 0.949008 14.5524C0.99529 14.6642 1.06313 14.7657 1.14864 14.8512C1.32135 15.0239 1.55559 15.1209 1.79984 15.1209C1.92078 15.1209 2.04054 15.0971 2.15227 15.0508C2.264 15.0046 2.36553 14.9367 2.45104 14.8512L7.99984 9.3008L13.5502 14.8512C13.723 15.0237 13.9571 15.1205 14.2012 15.1204C14.4453 15.1202 14.6793 15.0231 14.8518 14.8504C15.0243 14.6777 15.1212 14.4435 15.121 14.1994C15.1209 13.9553 15.0238 13.7213 14.851 13.5488L9.30064 8L14.851 2.4512Z" fill="white"/>
</svg>
