<svg width="20" height="21" viewBox="0 0 20 21" fill="none" xmlns="http://www.w3.org/2000/svg">
<path d="M9 13.358H8.949C8.69731 13.358 8.45593 13.258 8.27796 13.08C8.09998 12.9021 8 12.6607 8 12.409C8 12.1438 7.89464 11.8894 7.70711 11.7019C7.51957 11.5144 7.26522 11.409 7 11.409C6.73478 11.409 6.48043 11.5144 6.29289 11.7019C6.10536 11.8894 6 12.1438 6 12.409C6 13.1911 6.3107 13.9412 6.86374 14.4943C7.41679 15.0473 8.16688 15.358 8.949 15.358H9V16.358C9 16.6232 9.10536 16.8776 9.29289 17.0651C9.48043 17.2526 9.73478 17.358 10 17.358C10.2652 17.358 10.5196 17.2526 10.7071 17.0651C10.8946 16.8776 11 16.6232 11 16.358V15.358C11.7956 15.358 12.5587 15.0419 13.1213 14.4793C13.6839 13.9167 14 13.1537 14 12.358C14 11.5624 13.6839 10.7993 13.1213 10.2367C12.5587 9.67407 11.7956 9.358 11 9.358V7.358H11.022C11.562 7.358 12 7.796 12 8.336C12 8.60122 12.1054 8.85557 12.2929 9.04311C12.4804 9.23065 12.7348 9.336 13 9.336C13.2652 9.336 13.5196 9.23065 13.7071 9.04311C13.8946 8.85557 14 8.60122 14 8.336C14 7.54619 13.6862 6.78872 13.1278 6.23024C12.5693 5.67175 11.8118 5.358 11.022 5.358H11V4.358C11 4.09278 10.8946 3.83843 10.7071 3.65089C10.5196 3.46336 10.2652 3.358 10 3.358C9.73478 3.358 9.48043 3.46336 9.29289 3.65089C9.10536 3.83843 9 4.09278 9 4.358V5.358C8.60603 5.358 8.21593 5.4356 7.85195 5.58636C7.48797 5.73713 7.15726 5.95811 6.87868 6.23668C6.6001 6.51526 6.37913 6.84597 6.22836 7.20995C6.0776 7.57393 6 7.96404 6 8.358C6 8.75197 6.0776 9.14208 6.22836 9.50605C6.37913 9.87003 6.6001 10.2007 6.87868 10.4793C7.15726 10.7579 7.48797 10.9789 7.85195 11.1296C8.21593 11.2804 8.60603 11.358 9 11.358V13.358ZM11 13.358V11.358C11.2652 11.358 11.5196 11.4634 11.7071 11.6509C11.8946 11.8384 12 12.0928 12 12.358C12 12.6232 11.8946 12.8776 11.7071 13.0651C11.5196 13.2526 11.2652 13.358 11 13.358ZM9 7.358V9.358C8.73478 9.358 8.48043 9.25264 8.29289 9.06511C8.10536 8.87757 8 8.62322 8 8.358C8 8.09279 8.10536 7.83843 8.29289 7.6509C8.48043 7.46336 8.73478 7.358 9 7.358ZM10 20.358C4.477 20.358 0 15.881 0 10.358C0 4.835 4.477 0.358002 10 0.358002C15.523 0.358002 20 4.835 20 10.358C20 15.881 15.523 20.358 10 20.358Z" fill="#032840"/>
</svg>
