<svg width="20" height="20" viewBox="0 0 20 20" fill="none" xmlns="http://www.w3.org/2000/svg">
<path d="M12.351 3.35922L1.3468 14.3643C1.29139 14.4198 1.2519 14.4893 1.23244 14.5653L0.0126888 19.461C-0.00525068 19.5336 -0.00415128 19.6097 0.0158808 19.6818C0.0359129 19.7539 0.0742006 19.8196 0.127046 19.8726C0.208216 19.9535 0.318116 19.999 0.432715 19.9991C0.468068 19.999 0.503284 19.9947 0.537569 19.9861L5.43327 18.7661C5.5094 18.747 5.57888 18.7075 5.63429 18.6519L16.6395 7.64765L12.351 3.35922ZM19.3657 1.85869L18.1408 0.63378C17.3221 -0.184912 15.8952 -0.1841 15.0774 0.63378L13.5769 2.13431L17.8652 6.42257L19.3657 4.92208C19.7747 4.51331 19.9999 3.96918 19.9999 3.39049C19.9999 2.8118 19.7747 2.26767 19.3657 1.85869Z" fill="#0C94EA"/>
</svg>
