<svg width="10" height="18" viewBox="0 0 10 18" fill="none"
    xmlns="http://www.w3.org/2000/svg">
    <path d="M9.50005 9C9.50015 9.0985 9.48079 9.19605 9.44307 9.28705C9.40536 9.37805 9.35004 9.46069 9.2803 9.53025L1.7803 17.0302C1.48723 17.3233 1.01267 17.3233 0.719797 17.0302C0.426922 16.7372 0.426734 16.2626 0.719797 15.9697L7.68955 9L0.719796 2.03025C0.426734 1.73719 0.426734 1.26262 0.719796 0.969748C1.01286 0.676872 1.48742 0.676685 1.7803 0.969747L9.2803 8.46975C9.35004 8.5393 9.40536 8.62195 9.44307 8.71295C9.48079 8.80395 9.50015 8.9015 9.50005 9Z" fill="#0C94EA"/>
</svg>
