<svg width="6" height="12" viewBox="0 0 6 12" fill="none" xmlns="http://www.w3.org/2000/svg">
<path d="M6.00003 6C6.0001 6.06567 5.98719 6.1307 5.96205 6.19137C5.93691 6.25203 5.90003 6.30713 5.85353 6.3535L0.853531 11.3535C0.658156 11.5489 0.341781 11.5489 0.146531 11.3535C-0.0487188 11.1581 -0.0488438 10.8417 0.146531 10.6465L4.79303 6L0.146531 1.3535C-0.0488442 1.15812 -0.0488442 0.841747 0.146531 0.646498C0.341906 0.451247 0.65828 0.451122 0.853531 0.646498L5.85353 5.6465C5.90003 5.69287 5.93691 5.74797 5.96205 5.80863C5.98719 5.8693 6.0001 5.93433 6.00003 6Z" fill="#032840"/>
</svg>
