<svg width="20" height="18" viewBox="0 0 20 18" fill="none" xmlns="http://www.w3.org/2000/svg">
<path d="M3.33301 17.5V9.68751L1.83301 10.8333L0.833008 9.50001L3.33301 7.58334V5.00001H4.99967V6.31251L9.99967 2.50001L19.1663 9.50001L18.1663 10.8125L16.6663 9.68751V17.5H3.33301ZM4.99967 15.8333H9.16634V12.5H10.833V15.8333H14.9997V8.41668L9.99967 4.60418L4.99967 8.41668V15.8333ZM3.33301 4.16668C3.33301 3.47223 3.57606 2.88195 4.06217 2.39584C4.54829 1.90973 5.13856 1.66668 5.83301 1.66668C6.06912 1.66668 6.26704 1.58682 6.42676 1.42709C6.58648 1.26737 6.66634 1.06945 6.66634 0.833344H8.33301C8.33301 1.52779 8.08995 2.11807 7.60384 2.60418C7.11773 3.09029 6.52745 3.33334 5.83301 3.33334C5.5969 3.33334 5.39898 3.4132 5.23926 3.57293C5.07954 3.73265 4.99967 3.93057 4.99967 4.16668H3.33301Z" fill="#7A7A7A"/>
</svg>
