<svg width="8" height="2" viewBox="0 0 8 2" fill="none" xmlns="http://www.w3.org/2000/svg">
<path d="M1.5013 1.83332C1.27214 1.83332 1.07595 1.75173 0.91276 1.58853C0.749566 1.42534 0.667969 1.22916 0.667969 0.99999C0.667969 0.770823 0.749566 0.574643 0.91276 0.411448C1.07595 0.248254 1.27214 0.166656 1.5013 0.166656C1.73047 0.166656 1.92665 0.248254 2.08984 0.411448C2.25304 0.574643 2.33464 0.770823 2.33464 0.99999C2.33464 1.22916 2.25304 1.42534 2.08984 1.58853C1.92665 1.75173 1.73047 1.83332 1.5013 1.83332ZM4.0013 1.83332C3.77214 1.83332 3.57596 1.75173 3.41276 1.58853C3.24957 1.42534 3.16797 1.22916 3.16797 0.99999C3.16797 0.770823 3.24957 0.574643 3.41276 0.411448C3.57596 0.248254 3.77214 0.166656 4.0013 0.166656C4.23047 0.166656 4.42665 0.248254 4.58984 0.411448C4.75304 0.574643 4.83464 0.770823 4.83464 0.99999C4.83464 1.22916 4.75304 1.42534 4.58984 1.58853C4.42665 1.75173 4.23047 1.83332 4.0013 1.83332ZM6.5013 1.83332C6.27214 1.83332 6.07596 1.75173 5.91276 1.58853C5.74957 1.42534 5.66797 1.22916 5.66797 0.99999C5.66797 0.770823 5.74957 0.574643 5.91276 0.411448C6.07596 0.248254 6.27214 0.166656 6.5013 0.166656C6.73047 0.166656 6.92665 0.248254 7.08984 0.411448C7.25304 0.574643 7.33464 0.770823 7.33464 0.99999C7.33464 1.22916 7.25304 1.42534 7.08984 1.58853C6.92665 1.75173 6.73047 1.83332 6.5013 1.83332Z" fill="#0C94EA"/>
</svg>
