<svg width="20" height="20" viewBox="0 0 20 20" fill="none" xmlns="http://www.w3.org/2000/svg">
<path fill-rule="evenodd" clip-rule="evenodd" d="M8.024 0.745921C8.60606 0.347788 9.29481 0.134766 10 0.134766C10.7052 0.134766 11.3939 0.347788 11.976 0.745921L18.476 5.19392C18.9456 5.51516 19.3299 5.94606 19.5954 6.4493C19.861 6.95253 19.9999 7.51292 20 8.08192V16.4999C20 17.4282 19.6313 18.3184 18.9749 18.9748C18.3185 19.6312 17.4283 19.9999 16.5 19.9999H3.5C2.57174 19.9999 1.6815 19.6312 1.02513 18.9748C0.368749 18.3184 0 17.4282 0 16.4999V8.08192C0.000137344 7.51292 0.138998 6.95253 0.404555 6.4493C0.670111 5.94606 1.05435 5.51516 1.524 5.19392L8.024 0.745921ZM7.5 15.4999C7.36739 15.4999 7.24021 15.5526 7.14645 15.6464C7.05268 15.7401 7 15.8673 7 15.9999C7 16.1325 7.05268 16.2597 7.14645 16.3535C7.24021 16.4472 7.36739 16.4999 7.5 16.4999H12.5C12.6326 16.4999 12.7598 16.4472 12.8536 16.3535C12.9473 16.2597 13 16.1325 13 15.9999C13 15.8673 12.9473 15.7401 12.8536 15.6464C12.7598 15.5526 12.6326 15.4999 12.5 15.4999H7.5Z" fill="white"/>
</svg>
