<svg width="19" height="19" viewBox="0 0 19 19" fill="none" xmlns="http://www.w3.org/2000/svg">
<path d="M0.0625 14.8125L0.0625 18.25C0.0625 18.4323 0.134933 18.6072 0.263864 18.7361C0.392796 18.8651 0.567664 18.9375 0.75 18.9375L4.1875 18.9375C4.36984 18.9375 4.5447 18.8651 4.67364 18.7361C4.80257 18.6072 4.875 18.4323 4.875 18.25L4.875 17.375V16.875H5.375H6.25C6.43234 16.875 6.6072 16.8026 6.73614 16.6736C6.86507 16.5447 6.9375 16.3698 6.9375 16.1875L6.9375 15.3125V14.8125H7.4375H8.3125C8.40281 14.8126 8.49225 14.7948 8.57571 14.7603C8.65917 14.7258 8.73501 14.6752 8.79891 14.6114M0.0625 14.8125L11.75 0.375C12.7435 0.375939 13.7249 0.592174 14.6268 1.00881C15.5286 1.42546 16.3295 2.03261 16.9742 2.78846C17.6189 3.54431 18.0921 4.43091 18.3613 5.3872C18.6305 6.34349 18.6892 7.34677 18.5335 8.32794C18.3777 9.3091 18.0111 10.2449 17.459 11.0708C16.9069 11.8967 16.1824 12.5931 15.3353 13.1121C14.4882 13.6312 13.5387 13.9604 12.5521 14.0773C11.5655 14.1941 10.5654 14.0958 9.62047 13.789L8.79891 14.6114M0.0625 14.8125C0.0624292 14.7222 0.0801521 14.6327 0.114656 14.5493C0.149161 14.4658 0.19977 14.39 0.263594 14.3261L5.21102 9.37953L0.0625 14.8125ZM8.79891 14.6114L8.44555 14.2577M8.79891 14.6114L11.75 0.875M11.75 0.875C10.7439 0.875977 9.75224 1.11485 8.85604 1.57212C7.9597 2.02947 7.18423 2.69231 6.59295 3.50654C6.00167 4.32077 5.61133 5.2633 5.45382 6.25717C5.2963 7.25104 5.37607 8.26807 5.68661 9.22523L5.78113 9.51656L5.56454 9.73312L0.617343 14.6795C0.599937 14.6969 0.586134 14.7176 0.576724 14.7403C0.567315 14.7631 0.562481 14.7875 0.5625 14.8121L0.5625 14.8125L0.5625 18.25C0.5625 18.2997 0.582255 18.3474 0.617417 18.3826C0.652579 18.4177 0.70027 18.4375 0.75 18.4375L4.1875 18.4375C4.23723 18.4375 4.28492 18.4177 4.32008 18.3826C4.35525 18.3474 4.375 18.2997 4.375 18.25L4.375 16.875V16.375H4.875H6.25C6.29973 16.375 6.34742 16.3552 6.38258 16.3201C6.41775 16.2849 6.4375 16.2372 6.4375 16.1875L6.4375 14.8125V14.3125H6.9375H8.3125H8.31289C8.33753 14.3125 8.36192 14.3077 8.38468 14.2983C8.40738 14.2889 8.42802 14.2751 8.44542 14.2578C8.44546 14.2577 8.44551 14.2577 8.44555 14.2577M11.75 0.875C12.671 0.875936 13.5809 1.07644 14.4171 1.46272C15.2534 1.84906 15.996 2.41205 16.5938 3.11293C17.1916 3.81381 17.6304 4.63593 17.88 5.52268C18.1296 6.40942 18.1841 7.33973 18.0397 8.24954C17.8952 9.15935 17.5553 10.0271 17.0434 10.7929C16.5314 11.5587 15.8595 12.2045 15.0741 12.6858C14.2886 13.1671 13.4081 13.4724 12.4933 13.5808C11.5785 13.6891 10.6511 13.5979 9.77487 13.3134L9.48335 13.2188L9.26673 13.4356L8.44555 14.2577M11.75 0.875L8.44555 14.2577M12.4271 7.09026C12.7354 7.29628 13.0979 7.40625 13.4688 7.40625C13.966 7.40625 14.4429 7.2087 14.7946 6.85708C15.1462 6.50545 15.3438 6.02853 15.3438 5.53125C15.3438 5.16041 15.2338 4.7979 15.0278 4.48956C14.8217 4.18121 14.5289 3.94089 14.1863 3.79898C13.8437 3.65706 13.4667 3.61993 13.103 3.69228C12.7392 3.76462 12.4051 3.9432 12.1429 4.20542C11.8807 4.46765 11.7021 4.80174 11.6298 5.16546C11.5574 5.52917 11.5946 5.90617 11.7365 6.24878C11.8784 6.59139 12.1187 6.88423 12.4271 7.09026Z" stroke="white"/>
</svg>
