<svg width="19" height="19" viewBox="0 0 19 19" fill="none" xmlns="http://www.w3.org/2000/svg">
<path d="M5.56454 9.73312L5.78113 9.51656L5.68661 9.22523C5.37607 8.26807 5.2963 7.25104 5.45382 6.25717C5.61133 5.2633 6.00167 4.32077 6.59295 3.50654C7.18423 2.69231 7.9597 2.02947 8.85604 1.57212C9.75224 1.11485 10.7439 0.875977 11.75 0.875C12.671 0.875936 13.5809 1.07644 14.4171 1.46272C15.2534 1.84906 15.996 2.41205 16.5938 3.11293C17.1916 3.81381 17.6304 4.63593 17.88 5.52268C18.1296 6.40942 18.1841 7.33973 18.0397 8.24954C17.8952 9.15935 17.5553 10.0271 17.0434 10.7929C16.5314 11.5587 15.8595 12.2045 15.0741 12.6858C14.2886 13.1671 13.4081 13.4724 12.4933 13.5808C11.5785 13.6891 10.6511 13.5979 9.77487 13.3134L9.48335 13.2188L9.26673 13.4356L8.44555 14.2577C8.4455 14.2577 8.44546 14.2577 8.44542 14.2578C8.42802 14.2751 8.40738 14.2889 8.38468 14.2983C8.36192 14.3077 8.33753 14.3125 8.31289 14.3125H8.3125H6.9375H6.4375V14.8125L6.4375 16.1875C6.4375 16.2372 6.41775 16.2849 6.38258 16.3201C6.34742 16.3552 6.29973 16.375 6.25 16.375H4.875H4.375V16.875L4.375 18.25C4.375 18.2997 4.35525 18.3474 4.32008 18.3826C4.28492 18.4177 4.23723 18.4375 4.1875 18.4375L0.75 18.4375C0.70027 18.4375 0.652579 18.4177 0.61742 18.3826C0.582254 18.3474 0.5625 18.2997 0.5625 18.25L0.5625 14.8125L0.5625 14.8121C0.562481 14.7875 0.567314 14.7631 0.576724 14.7403C0.586134 14.7176 0.599937 14.6969 0.617343 14.6795L5.56454 9.73312ZM12.4271 7.09025C12.7354 7.29628 13.0979 7.40625 13.4687 7.40625C13.966 7.40625 14.4429 7.20871 14.7946 6.85708C15.1462 6.50544 15.3437 6.02853 15.3437 5.53125C15.3437 5.16041 15.2338 4.7979 15.0278 4.48956C14.8217 4.18121 14.5289 3.94089 14.1863 3.79898C13.8437 3.65706 13.4667 3.61993 13.103 3.69228C12.7392 3.76462 12.4051 3.9432 12.1429 4.20543C11.8807 4.46765 11.7021 4.80174 11.6298 5.16546C11.5574 5.52917 11.5946 5.90617 11.7365 6.24878C11.8784 6.59139 12.1187 6.88423 12.4271 7.09025Z" fill="#032840" stroke="#032840"/>
</svg>
