<svg width="18" height="24" viewBox="0 0 18 24" fill="none" xmlns="http://www.w3.org/2000/svg">
<path d="M17.0005 14C16.4475 14 16.0005 14.448 16.0005 15V20H12.0005V3.99998C12.0005 3.55898 11.7105 3.16898 11.2875 3.042L7.81446 2.00002H16.0005V7.00003C16.0005 7.55203 16.4475 8.00002 17.0005 8.00002C17.5534 8.00002 18.0004 7.55203 18.0004 7.00003V1.00003C18.0004 0.447984 17.5534 0 17.0005 0H1.00047C0.964473 0 0.932457 0.015 0.897488 0.0189844C0.850473 0.024 0.807488 0.0319688 0.762488 0.0429844C0.66026 0.0689195 0.562743 0.110758 0.473504 0.166969C0.45152 0.180984 0.42452 0.181969 0.40352 0.197953C0.395457 0.204 0.392457 0.215016 0.384441 0.221016C0.275457 0.306984 0.184473 0.411984 0.118473 0.537C0.104457 0.564 0.101457 0.593016 0.0904883 0.621C0.0584727 0.696984 0.0235039 0.771 0.0115039 0.855C0.00648828 0.885 0.0154883 0.912984 0.0145039 0.942C0.0135195 0.962016 0.000488281 0.980016 0.000488281 0.999984V21C0.000488281 21.477 0.337473 21.887 0.804488 21.98L10.8045 23.98C10.8695 23.994 10.9355 24 11.0005 24C11.2317 24 11.4558 23.9198 11.6344 23.773C11.7488 23.6792 11.8409 23.5612 11.9042 23.4276C11.9674 23.2939 12.0003 23.1479 12.0004 23V22H17.0005C17.5534 22 18.0004 21.552 18.0004 21V15C18.0004 14.448 17.5534 14 17.0005 14Z" fill="#032840"/>
</svg>
