<svg width="16" height="20" viewBox="0 0 16 20" fill="none" xmlns="http://www.w3.org/2000/svg">
<path fill-rule="evenodd" clip-rule="evenodd" d="M7.99972 19.1886L8.72086 18.376C9.53915 17.4389 10.2752 16.5497 10.93 15.704L11.4706 14.9909C13.7277 11.9497 14.8569 9.536 14.8569 7.752C14.8569 3.944 11.7871 0.857147 7.99972 0.857147C4.21229 0.857147 1.14258 3.944 1.14258 7.752C1.14258 9.536 2.27172 11.9497 4.52886 14.9909L5.06944 15.704C6.00365 16.901 6.98106 18.0626 7.99972 19.1886Z" stroke="#969696" stroke-width="1.14286" stroke-linecap="round" stroke-linejoin="round"/>
<path d="M7.99972 10.5714C9.57768 10.5714 10.8569 9.29225 10.8569 7.71429C10.8569 6.13633 9.57768 4.85715 7.99972 4.85715C6.42176 4.85715 5.14258 6.13633 5.14258 7.71429C5.14258 9.29225 6.42176 10.5714 7.99972 10.5714Z" stroke="#969696" stroke-width="1.14286" stroke-linecap="round" stroke-linejoin="round"/>
</svg>
