<svg width="18" height="26" viewBox="0 0 18 26" fill="none" xmlns="http://www.w3.org/2000/svg">
<path d="M9 25.5C6.79167 25.5 4.98958 25.151 3.59375 24.4531C2.19792 23.7552 1.5 22.8542 1.5 21.75C1.5 21.25 1.65104 20.7865 1.95313 20.3594C2.25521 19.9323 2.67708 19.5625 3.21875 19.25L5.1875 21.0938C5 21.1771 4.79688 21.2708 4.57812 21.375C4.35938 21.4792 4.1875 21.6042 4.0625 21.75C4.33333 22.0833 4.95833 22.375 5.9375 22.625C6.91667 22.875 7.9375 23 9 23C10.0625 23 11.0885 22.875 12.0781 22.625C13.0677 22.375 13.6979 22.0833 13.9688 21.75C13.8229 21.5833 13.6354 21.4479 13.4063 21.3438C13.1771 21.2396 12.9583 21.1458 12.75 21.0625L14.6875 19.1875C15.2708 19.5208 15.7188 19.901 16.0312 20.3281C16.3438 20.7552 16.5 21.2292 16.5 21.75C16.5 22.8542 15.8021 23.7552 14.4062 24.4531C13.0104 25.151 11.2083 25.5 9 25.5ZM9.03125 18.625C11.0938 17.1042 12.6458 15.5781 13.6875 14.0469C14.7292 12.5156 15.25 10.9792 15.25 9.4375C15.25 7.3125 14.5729 5.70833 13.2188 4.625C11.8646 3.54167 10.4583 3 9 3C7.54167 3 6.13542 3.54167 4.78125 4.625C3.42708 5.70833 2.75 7.3125 2.75 9.4375C2.75 10.8333 3.26042 12.2865 4.28125 13.7969C5.30208 15.3073 6.88542 16.9167 9.03125 18.625ZM9 21.75C6.0625 19.5833 3.86979 17.4792 2.42188 15.4375C0.973958 13.3958 0.25 11.3958 0.25 9.4375C0.25 7.95833 0.515625 6.66146 1.04688 5.54688C1.57812 4.43229 2.26042 3.5 3.09375 2.75C3.92708 2 4.86458 1.4375 5.90625 1.0625C6.94792 0.6875 7.97917 0.5 9 0.5C10.0208 0.5 11.0521 0.6875 12.0938 1.0625C13.1354 1.4375 14.0729 2 14.9062 2.75C15.7396 3.5 16.4219 4.43229 16.9531 5.54688C17.4844 6.66146 17.75 7.95833 17.75 9.4375C17.75 11.3958 17.026 13.3958 15.5781 15.4375C14.1302 17.4792 11.9375 19.5833 9 21.75ZM9 11.75C9.6875 11.75 10.276 11.5052 10.7656 11.0156C11.2552 10.526 11.5 9.9375 11.5 9.25C11.5 8.5625 11.2552 7.97396 10.7656 7.48438C10.276 6.99479 9.6875 6.75 9 6.75C8.3125 6.75 7.72396 6.99479 7.23438 7.48438C6.74479 7.97396 6.5 8.5625 6.5 9.25C6.5 9.9375 6.74479 10.526 7.23438 11.0156C7.72396 11.5052 8.3125 11.75 9 11.75Z" fill="#DD2C00"/>
</svg>
