<svg width="12" height="18" viewBox="0 0 12 18" fill="none" xmlns="http://www.w3.org/2000/svg">
<path d="M6.00033 17.3333C4.5281 17.3333 3.32671 17.1007 2.39616 16.6354C1.4656 16.1701 1.00033 15.5694 1.00033 14.8333C1.00033 14.5 1.10102 14.191 1.30241 13.9063C1.5038 13.6215 1.78505 13.375 2.14616 13.1667L3.45866 14.3958C3.33366 14.4514 3.19824 14.5139 3.05241 14.5833C2.90658 14.6528 2.79199 14.7361 2.70866 14.8333C2.88921 15.0556 3.30588 15.25 3.95866 15.4167C4.61144 15.5833 5.29199 15.6667 6.00033 15.6667C6.70866 15.6667 7.39269 15.5833 8.05241 15.4167C8.71213 15.25 9.13227 15.0556 9.31283 14.8333C9.2156 14.7222 9.0906 14.632 8.93783 14.5625C8.78505 14.4931 8.63921 14.4306 8.50033 14.375L9.79199 13.125C10.1809 13.3472 10.4795 13.6007 10.6878 13.8854C10.8962 14.1701 11.0003 14.4861 11.0003 14.8333C11.0003 15.5694 10.535 16.1701 9.60449 16.6354C8.67394 17.1007 7.47255 17.3333 6.00033 17.3333ZM6.02116 12.75C7.39616 11.7361 8.43088 10.7188 9.12533 9.69792C9.81977 8.67709 10.167 7.65278 10.167 6.62501C10.167 5.20834 9.7156 4.13889 8.81283 3.41667C7.91005 2.69445 6.97255 2.33334 6.00033 2.33334C5.0281 2.33334 4.0906 2.69445 3.18783 3.41667C2.28505 4.13889 1.83366 5.20834 1.83366 6.62501C1.83366 7.55556 2.17394 8.52431 2.85449 9.53125C3.53505 10.5382 4.5906 11.6111 6.02116 12.75ZM6.00033 14.8333C4.04199 13.3889 2.58019 11.9861 1.61491 10.625C0.649631 9.26389 0.166992 7.93056 0.166992 6.62501C0.166992 5.63889 0.344076 4.77431 0.698242 4.03126C1.05241 3.2882 1.50727 2.66667 2.06283 2.16667C2.61838 1.66667 3.24338 1.29167 3.93783 1.04167C4.63227 0.791672 5.31977 0.666672 6.00033 0.666672C6.68088 0.666672 7.36838 0.791672 8.06283 1.04167C8.75727 1.29167 9.38227 1.66667 9.93783 2.16667C10.4934 2.66667 10.9482 3.2882 11.3024 4.03126C11.6566 4.77431 11.8337 5.63889 11.8337 6.62501C11.8337 7.93056 11.351 9.26389 10.3857 10.625C9.42046 11.9861 7.95866 13.3889 6.00033 14.8333ZM6.00033 8.16667C6.45866 8.16667 6.85102 8.00348 7.17741 7.67709C7.5038 7.3507 7.66699 6.95834 7.66699 6.5C7.66699 6.04167 7.5038 5.64931 7.17741 5.32292C6.85102 4.99653 6.45866 4.83334 6.00033 4.83334C5.54199 4.83334 5.14963 4.99653 4.82324 5.32292C4.49685 5.64931 4.33366 6.04167 4.33366 6.5C4.33366 6.95834 4.49685 7.3507 4.82324 7.67709C5.14963 8.00348 5.54199 8.16667 6.00033 8.16667Z" fill="#0C94EA"/>
</svg>
