<svg width="20" height="24" viewBox="0 0 20 24" fill="none"
    xmlns="http://www.w3.org/2000/svg">
    <path d="M18.5243 2.02491C18.1263 1.626 17.5968 1.40625 17.0336 1.40625H16.0987V2.34375C16.0987 3.37762 15.2585 4.21875 14.2257 4.21875H5.79761C4.76486 4.21875 3.92467 3.37762 3.92467 2.34375V1.40625H2.98666C1.82613 1.40625 0.880939 2.35144 0.879626 3.51328L0.859376 21.8883C0.85872 22.4521 1.07763 22.9824 1.47564 23.3813C1.87375 23.7803 2.40316 24 2.96641 24H17.0133C18.1738 24 19.1191 23.0548 19.1203 21.893L19.1406 3.51797C19.1413 2.95411 18.9224 2.42386 18.5243 2.02491ZM10.2388 8.4375H15.2288C15.6167 8.4375 15.9311 8.75231 15.9311 9.14062C15.9311 9.52894 15.6167 9.84375 15.2288 9.84375H10.2388C9.85089 9.84375 9.53646 9.52894 9.53646 9.14062C9.53646 8.75231 9.85089 8.4375 10.2388 8.4375ZM10.2388 13.125H15.2288C15.6167 13.125 15.9311 13.4398 15.9311 13.8281C15.9311 14.2164 15.6167 14.5312 15.2288 14.5312H10.2388C9.85089 14.5312 9.53646 14.2164 9.53646 13.8281C9.53646 13.4398 9.85089 13.125 10.2388 13.125ZM10.2388 17.8125H15.2488C15.6367 17.8125 15.9512 18.1273 15.9512 18.5156C15.9512 18.9039 15.6367 19.2188 15.2488 19.2188H10.2388C9.85089 19.2188 9.53646 18.9039 9.53646 18.5156C9.53646 18.1273 9.85089 17.8125 10.2388 17.8125ZM4.25458 8.46525C4.52889 8.19066 4.97355 8.19066 5.24786 8.46525L5.62975 8.84761L7.24947 7.22611C7.52378 6.95156 7.96844 6.95147 8.24271 7.22611C8.51697 7.50066 8.51697 7.94587 8.24271 8.22047L6.12635 10.3391C6.06116 10.4044 5.98375 10.4562 5.89853 10.4915C5.81331 10.5269 5.72196 10.5451 5.6297 10.5451C5.53745 10.5451 5.4461 10.5269 5.36088 10.4915C5.27566 10.4562 5.19825 10.4044 5.13306 10.3391L4.25453 9.45956C3.98027 9.18502 3.98027 8.7398 4.25458 8.46525ZM4.25458 13.5107C4.52889 13.2361 4.97355 13.2361 5.24786 13.5107L5.62975 13.893L7.24947 12.2715C7.52374 11.997 7.96844 11.997 8.24271 12.2715C8.51697 12.5461 8.51697 12.9913 8.24271 13.2659L6.12635 15.3846C6.06116 15.4499 5.98374 15.5017 5.89852 15.537C5.8133 15.5723 5.72196 15.5905 5.6297 15.5905C5.53745 15.5905 5.44611 15.5723 5.36089 15.537C5.27567 15.5017 5.19825 15.4499 5.13306 15.3846L4.25453 14.505C3.98027 14.2305 3.98027 13.7853 4.25458 13.5107ZM4.25458 18.1982C4.52889 17.9236 4.97355 17.9236 5.24786 18.1982L5.62975 18.5805L7.24947 16.959C7.52374 16.6845 7.96844 16.6845 8.24271 16.959C8.51697 17.2336 8.51697 17.6788 8.24271 17.9534L6.12635 20.0721C6.06116 20.1374 5.98374 20.1892 5.89852 20.2245C5.8133 20.2598 5.72196 20.278 5.6297 20.278C5.53745 20.278 5.44611 20.2598 5.36089 20.2245C5.27567 20.1892 5.19825 20.1374 5.13306 20.0721L4.25453 19.1925C3.98027 18.918 3.98027 18.4728 4.25458 18.1982Z" fill="#687E8D"/>
    <path d="M5.32959 2.34375C5.32959 2.60264 5.53922 2.8125 5.79782 2.8125H14.2259C14.4846 2.8125 14.6942 2.60264 14.6942 2.34375V0.46875C14.6942 0.209859 14.4846 0 14.2259 0H5.79782C5.53922 0 5.32959 0.209859 5.32959 0.46875V2.34375Z" fill="#687E8D"/>
</svg>
