<svg width="24" height="24" viewBox="0 0 24 24" fill="none" xmlns="http://www.w3.org/2000/svg">
<path d="M20.5243 2.02491C20.1263 1.626 19.5968 1.40625 19.0336 1.40625H18.0987V2.34375C18.0987 3.37762 17.2585 4.21875 16.2257 4.21875H7.79761C6.76486 4.21875 5.92467 3.37762 5.92467 2.34375V1.40625H4.98666C3.82613 1.40625 2.88094 2.35144 2.87963 3.51328L2.85938 21.8883C2.85872 22.4521 3.07763 22.9824 3.47564 23.3813C3.87375 23.7803 4.40316 24 4.96641 24H19.0133C20.1738 24 21.1191 23.0548 21.1203 21.893L21.1406 3.51797C21.1413 2.95411 20.9224 2.42386 20.5243 2.02491ZM12.2388 8.4375H17.2288C17.6167 8.4375 17.9311 8.75231 17.9311 9.14062C17.9311 9.52894 17.6167 9.84375 17.2288 9.84375H12.2388C11.8509 9.84375 11.5365 9.52894 11.5365 9.14062C11.5365 8.75231 11.8509 8.4375 12.2388 8.4375ZM12.2388 13.125H17.2288C17.6167 13.125 17.9311 13.4398 17.9311 13.8281C17.9311 14.2164 17.6167 14.5312 17.2288 14.5312H12.2388C11.8509 14.5312 11.5365 14.2164 11.5365 13.8281C11.5365 13.4398 11.8509 13.125 12.2388 13.125ZM12.2388 17.8125H17.2488C17.6367 17.8125 17.9512 18.1273 17.9512 18.5156C17.9512 18.9039 17.6367 19.2188 17.2488 19.2188H12.2388C11.8509 19.2188 11.5365 18.9039 11.5365 18.5156C11.5365 18.1273 11.8509 17.8125 12.2388 17.8125ZM6.25458 8.46525C6.52889 8.19066 6.97355 8.19066 7.24786 8.46525L7.62975 8.84761L9.24947 7.22611C9.52378 6.95156 9.96844 6.95147 10.2427 7.22611C10.517 7.50066 10.517 7.94587 10.2427 8.22047L8.12635 10.3391C8.06116 10.4044 7.98375 10.4562 7.89853 10.4915C7.81331 10.5269 7.72196 10.5451 7.6297 10.5451C7.53745 10.5451 7.4461 10.5269 7.36088 10.4915C7.27566 10.4562 7.19825 10.4044 7.13306 10.3391L6.25453 9.45956C5.98027 9.18502 5.98027 8.7398 6.25458 8.46525ZM6.25458 13.5107C6.52889 13.2361 6.97355 13.2361 7.24786 13.5107L7.62975 13.893L9.24947 12.2715C9.52374 11.997 9.96844 11.997 10.2427 12.2715C10.517 12.5461 10.517 12.9913 10.2427 13.2659L8.12635 15.3846C8.06116 15.4499 7.98374 15.5017 7.89852 15.537C7.8133 15.5723 7.72196 15.5905 7.6297 15.5905C7.53745 15.5905 7.44611 15.5723 7.36089 15.537C7.27567 15.5017 7.19825 15.4499 7.13306 15.3846L6.25453 14.505C5.98027 14.2305 5.98027 13.7853 6.25458 13.5107ZM6.25458 18.1982C6.52889 17.9236 6.97355 17.9236 7.24786 18.1982L7.62975 18.5805L9.24947 16.959C9.52374 16.6845 9.96844 16.6845 10.2427 16.959C10.517 17.2336 10.517 17.6788 10.2427 17.9534L8.12635 20.0721C8.06116 20.1374 7.98374 20.1892 7.89852 20.2245C7.8133 20.2598 7.72196 20.278 7.6297 20.278C7.53745 20.278 7.44611 20.2598 7.36089 20.2245C7.27567 20.1892 7.19825 20.1374 7.13306 20.0721L6.25453 19.1925C5.98027 18.918 5.98027 18.4728 6.25458 18.1982Z" fill="white"/>
<path d="M7.3291 2.34375C7.3291 2.60264 7.53873 2.8125 7.79734 2.8125H16.2255C16.4841 2.8125 16.6937 2.60264 16.6937 2.34375V0.46875C16.6937 0.209859 16.4841 0 16.2255 0H7.79734C7.53873 0 7.3291 0.209859 7.3291 0.46875V2.34375Z" fill="white"/>
</svg>
