<svg width="18" height="18" viewBox="0 0 18 18" fill="none" xmlns="http://www.w3.org/2000/svg">
<path d="M8.24961 17.2125V15.7125C6.68711 15.5375 5.34648 14.8906 4.22773 13.7719C3.10898 12.6531 2.46211 11.3125 2.28711 9.75H0.787109V8.25H2.28711C2.46211 6.6875 3.10898 5.34687 4.22773 4.22812C5.34648 3.10937 6.68711 2.4625 8.24961 2.2875V0.787498H9.74961V2.2875C11.3121 2.4625 12.6527 3.10937 13.7715 4.22812C14.8902 5.34687 15.5371 6.6875 15.7121 8.25H17.2121V9.75H15.7121C15.5371 11.3125 14.8902 12.6531 13.7715 13.7719C12.6527 14.8906 11.3121 15.5375 9.74961 15.7125V17.2125H8.24961ZM8.99961 14.25C10.4496 14.25 11.6871 13.7375 12.7121 12.7125C13.7371 11.6875 14.2496 10.45 14.2496 9C14.2496 7.55 13.7371 6.3125 12.7121 5.2875C11.6871 4.2625 10.4496 3.75 8.99961 3.75C7.54961 3.75 6.31211 4.2625 5.28711 5.2875C4.26211 6.3125 3.74961 7.55 3.74961 9C3.74961 10.45 4.26211 11.6875 5.28711 12.7125C6.31211 13.7375 7.54961 14.25 8.99961 14.25ZM8.99961 12C8.17461 12 7.46836 11.7062 6.88086 11.1187C6.29336 10.5312 5.99961 9.825 5.99961 9C5.99961 8.175 6.29336 7.46875 6.88086 6.88125C7.46836 6.29375 8.17461 6 8.99961 6C9.82461 6 10.5309 6.29375 11.1184 6.88125C11.7059 7.46875 11.9996 8.175 11.9996 9C11.9996 9.825 11.7059 10.5312 11.1184 11.1187C10.5309 11.7062 9.82461 12 8.99961 12ZM8.99961 10.5C9.41211 10.5 9.76523 10.3531 10.059 10.0594C10.3527 9.76562 10.4996 9.4125 10.4996 9C10.4996 8.5875 10.3527 8.23437 10.059 7.94062C9.76523 7.64687 9.41211 7.5 8.99961 7.5C8.58711 7.5 8.23398 7.64687 7.94023 7.94062C7.64648 8.23437 7.49961 8.5875 7.49961 9C7.49961 9.4125 7.64648 9.76562 7.94023 10.0594C8.23398 10.3531 8.58711 10.5 8.99961 10.5Z" fill="#0C94EA"/>
</svg>
