<svg width="20" height="22" viewBox="0 0 20 22" fill="none" xmlns="http://www.w3.org/2000/svg">
<path d="M4.00001 15.184V6.816C4.66722 6.5801 5.22956 6.11593 5.58764 5.50552C5.94571 4.89511 6.07647 4.17776 5.9568 3.48027C5.83713 2.78277 5.47474 2.15004 4.93367 1.69389C4.3926 1.23775 3.70769 0.987573 3.00001 0.987573C2.29232 0.987573 1.60741 1.23775 1.06635 1.69389C0.525277 2.15004 0.162882 2.78277 0.0432105 3.48027C-0.0764608 4.17776 0.0542975 4.89511 0.412375 5.50552C0.770452 6.11593 1.33279 6.5801 2.00001 6.816V15.184C1.33279 15.4199 0.770452 15.8841 0.412375 16.4945C0.0542975 17.1049 -0.0764608 17.8222 0.0432105 18.5197C0.162882 19.2172 0.525277 19.85 1.06635 20.3061C1.60741 20.7622 2.29232 21.0124 3.00001 21.0124C3.70769 21.0124 4.3926 20.7622 4.93367 20.3061C5.47474 19.85 5.83713 19.2172 5.9568 18.5197C6.07647 17.8222 5.94571 17.1049 5.58764 16.4945C5.22956 15.8841 4.66722 15.4199 4.00001 15.184ZM18 15.184V5C18 4.46957 17.7893 3.96086 17.4142 3.58579C17.0391 3.21071 16.5304 3 16 3H10.828L12.414 1.414L11 0L8.41401 2.586L7.00001 4L8.41401 5.414L11 8L12.414 6.586L10.828 5H16V15.184C15.3328 15.4199 14.7705 15.8841 14.4124 16.4945C14.0543 17.1049 13.9235 17.8222 14.0432 18.5197C14.1629 19.2172 14.5253 19.85 15.0663 20.3061C15.6074 20.7622 16.2923 21.0124 17 21.0124C17.7077 21.0124 18.3926 20.7622 18.9337 20.3061C19.4747 19.85 19.8371 19.2172 19.9568 18.5197C20.0765 17.8222 19.9457 17.1049 19.5876 16.4945C19.2296 15.8841 18.6672 15.4199 18 15.184Z" fill="black"/>
</svg>
