<svg width="16" height="14" viewBox="0 0 16 14" fill="none" xmlns="http://www.w3.org/2000/svg">
    <path fill-rule="evenodd" clip-rule="evenodd" d="M1.95342 6.46667C2.00142 3.16001 4.71742 0.500007 8.05275 0.500007C9.09696 0.498389 10.1241 0.76456 11.0362 1.27309C11.9482 1.78162 12.7146 2.51552 13.2621 3.40467C13.3276 3.51743 13.3464 3.65131 13.3146 3.77776C13.2828 3.90421 13.2028 4.01323 13.0918 4.08158C12.9807 4.14993 12.8474 4.17219 12.7202 4.14363C12.5929 4.11506 12.4819 4.03793 12.4107 3.92867C11.9527 3.18494 11.3115 2.57113 10.5485 2.14592C9.78553 1.72071 8.92622 1.49832 8.05275 1.50001C5.26275 1.50001 3.00275 3.71867 2.95408 6.46534L3.22075 6.20067C3.3149 6.10723 3.44232 6.05501 3.57497 6.05551C3.70762 6.05601 3.83464 6.10919 3.92808 6.20334C4.02153 6.29749 4.07374 6.42491 4.07324 6.55756C4.07274 6.69021 4.01957 6.81723 3.92542 6.91067L2.80542 8.02134C2.71178 8.11416 2.58527 8.16624 2.45342 8.16624C2.32157 8.16624 2.19506 8.11416 2.10142 8.02134L0.981418 6.91067C0.934755 6.86445 0.897653 6.80948 0.872232 6.74892C0.846811 6.68836 0.833567 6.62338 0.833258 6.5577C0.832948 6.49202 0.845578 6.42692 0.870428 6.36612C0.895277 6.30531 0.931859 6.25 0.978084 6.20334C1.02431 6.15668 1.07927 6.11958 1.13984 6.09415C1.2004 6.06873 1.26538 6.05549 1.33106 6.05518C1.39674 6.05487 1.46184 6.0675 1.52264 6.09235C1.58344 6.1172 1.63875 6.15378 1.68542 6.20001L1.95342 6.46667ZM13.1907 5.97801C13.2844 5.88539 13.4107 5.83344 13.5424 5.83344C13.6741 5.83344 13.8005 5.88539 13.8941 5.97801L15.0181 7.08867C15.066 7.13453 15.1044 7.18946 15.1309 7.25028C15.1574 7.3111 15.1715 7.37659 15.1725 7.44292C15.1734 7.50926 15.1612 7.57513 15.1364 7.63668C15.1116 7.69823 15.0749 7.75423 15.0282 7.80143C14.9816 7.84863 14.9261 7.88608 14.8648 7.9116C14.8036 7.93711 14.7379 7.95019 14.6715 7.95005C14.6052 7.94992 14.5395 7.93659 14.4784 7.91082C14.4173 7.88506 14.3618 7.84739 14.3154 7.80001L14.0421 7.53001C13.9954 10.84 11.2681 13.5 7.92208 13.5C6.87527 13.5023 5.84527 13.2367 4.93016 12.7284C4.01504 12.2201 3.24525 11.486 2.69408 10.596C2.65959 10.5401 2.63644 10.478 2.62597 10.4131C2.61549 10.3483 2.61789 10.282 2.63303 10.2181C2.64816 10.1542 2.67574 10.0939 2.71418 10.0406C2.75263 9.98733 2.80118 9.94217 2.85708 9.90767C2.91298 9.87318 2.97513 9.85003 3.03997 9.83956C3.10482 9.82908 3.17109 9.83148 3.23501 9.84662C3.29893 9.86175 3.35924 9.88933 3.4125 9.92777C3.46576 9.96622 3.51092 10.0148 3.54542 10.0707C4.00696 10.8155 4.65147 11.4297 5.41757 11.855C6.18368 12.2802 7.04588 12.5023 7.92208 12.5C10.7261 12.5 12.9954 10.278 13.0421 7.53134L12.7701 7.80001C12.6758 7.89327 12.5482 7.94525 12.4156 7.9445C12.2829 7.94375 12.156 7.89034 12.0627 7.79601C11.9695 7.70168 11.9175 7.57416 11.9183 7.44151C11.919 7.30886 11.9724 7.18194 12.0667 7.08867L13.1907 5.97801Z" fill="white"/>
</svg>
