<svg width="22" height="22" viewBox="0 0 22 22" fill="none" xmlns="http://www.w3.org/2000/svg">
<path d="M21.101 9.56194L1.753 0.122944C1.56707 0.0323374 1.36114 -0.00946933 1.15459 0.00145869C0.94805 0.0123867 0.747682 0.0756901 0.572349 0.185411C0.397016 0.295131 0.252484 0.447661 0.152357 0.628644C0.0522292 0.809626 -0.000200961 1.01311 5.78843e-07 1.21994V1.25494C9.96092e-05 1.41846 0.0202499 1.58134 0.0600005 1.73994L1.916 9.16394C1.94088 9.26284 1.9954 9.35177 2.07226 9.4188C2.14912 9.48583 2.24464 9.52775 2.346 9.53894L10.503 10.4459C10.6387 10.4623 10.7638 10.5278 10.8545 10.63C10.9452 10.7323 10.9952 10.8642 10.9952 11.0009C10.9952 11.1376 10.9452 11.2696 10.8545 11.3719C10.7638 11.4741 10.6387 11.5396 10.503 11.5559L2.346 12.4629C2.24464 12.4741 2.14912 12.5161 2.07226 12.5831C1.9954 12.6501 1.94088 12.739 1.916 12.8379L0.0600005 20.2609C0.0202499 20.4196 9.96092e-05 20.5824 5.78843e-07 20.7459V20.7809C-3.12261e-05 20.9877 0.0525228 21.1911 0.15272 21.3719C0.252918 21.5527 0.397467 21.7051 0.572773 21.8147C0.748079 21.9243 0.948382 21.9876 1.15484 21.9984C1.36131 22.0093 1.56714 21.9675 1.753 21.8769L21.1 12.4379C21.3694 12.3065 21.5965 12.102 21.7554 11.8477C21.9142 11.5935 21.9985 11.2997 21.9985 10.9999C21.9985 10.7002 21.9142 10.4064 21.7554 10.1521C21.5965 9.89789 21.3704 9.69339 21.101 9.56194Z" fill="white"/>
</svg>
