<svg width="21" height="21" viewBox="0 0 21 21" fill="none" xmlns="http://www.w3.org/2000/svg">
<path d="M9.9379 0.931514C7.55344 0.935511 5.26777 1.88451 3.5817 3.57058C1.89562 5.25666 0.946624 7.54232 0.942627 9.92679C0.94462 12.3133 1.89249 14.6016 3.57857 16.2906C5.26465 17.9795 7.55143 18.9312 9.9379 18.9372C12.0544 18.9372 14.0047 18.1926 15.5467 16.9605L19.2922 20.706C19.482 20.8824 19.7327 20.9785 19.9918 20.9739C20.2508 20.9694 20.4981 20.8646 20.6815 20.6817C20.865 20.4987 20.9704 20.2518 20.9756 19.9927C20.9808 19.7337 20.8855 19.4827 20.7096 19.2925L16.964 15.5432C18.2433 13.9522 18.9407 11.972 18.9407 9.93057C18.9407 4.97183 14.8966 0.931514 9.9379 0.931514ZM9.9379 2.93466C13.8157 2.93466 16.9376 6.05277 16.9376 9.92679C16.9376 13.8008 13.8157 16.9378 9.9379 16.9378C6.06011 16.9378 2.942 13.8121 2.942 9.93435C2.942 6.05655 6.06011 2.93466 9.9379 2.93466Z" fill="#0C94EA"/>
</svg>
