<svg width="8" height="6" viewBox="0 0 8 6" fill="none" xmlns="http://www.w3.org/2000/svg">
<path d="M5.25 5.91667L4.66667 5.32292L6.15625 3.83334H2.125C1.60417 3.83334 1.16146 3.65104 0.796875 3.28646C0.432292 2.92188 0.25 2.47917 0.25 1.95834C0.25 1.4375 0.432292 0.994794 0.796875 0.630211C1.16146 0.265628 1.60417 0.0833359 2.125 0.0833359H2.33333V0.916669H2.125C1.83333 0.916669 1.58681 1.01736 1.38542 1.21875C1.18403 1.42014 1.08333 1.66667 1.08333 1.95834C1.08333 2.25 1.18403 2.49653 1.38542 2.69792C1.58681 2.89931 1.83333 3 2.125 3H6.15625L4.66667 1.5L5.25 0.916669L7.75 3.41667L5.25 5.91667Z" fill="#0C94EA"/>
</svg>
