<svg width="78" height="78" viewBox="0 0 78 78" fill="none" xmlns="http://www.w3.org/2000/svg">
<path d="M15.9732 72.6002L3.26658 77.5202C2.87737 77.6676 2.4539 77.6995 2.04702 77.612C1.64014 77.5246 1.26716 77.3215 0.972884 77.0272C0.678607 76.7329 0.475548 76.36 0.388099 75.9531C0.300649 75.5462 0.332529 75.1227 0.479909 74.7335L5.39991 62.0269L15.9732 72.6002Z" fill="#0C94EA"/>
<path d="M64.6785 12.4229C66.2785 9.80161 66.2785 8.19894 64.6785 5.57894C64.5978 5.45353 64.5622 5.30441 64.5774 5.15605C64.5926 5.0077 64.6579 4.86895 64.7624 4.76257C64.8669 4.65619 65.0045 4.58851 65.1526 4.57065C65.3006 4.55279 65.4504 4.58581 65.5772 4.66428C68.1985 6.26428 69.8012 6.26428 72.4212 4.66428C72.5487 4.58778 72.6981 4.55609 72.8456 4.57426C72.9932 4.59242 73.1305 4.65939 73.2356 4.76452C73.3407 4.86966 73.4077 5.00692 73.4259 5.15448C73.444 5.30205 73.4123 5.45145 73.3358 5.57894C71.7358 8.19894 71.7358 9.80161 73.3358 12.4229C73.4143 12.5498 73.4473 12.6995 73.4295 12.8476C73.4116 12.9956 73.3439 13.1332 73.2376 13.2377C73.1312 13.3422 72.9924 13.4075 72.8441 13.4227C72.6957 13.438 72.5466 13.4023 72.4212 13.3216C69.8012 11.7216 68.1985 11.7216 65.5772 13.3216C65.4524 13.4031 65.3034 13.4391 65.1551 13.4237C65.0069 13.4083 64.8685 13.3424 64.7631 13.237C64.6577 13.1316 64.5918 12.9932 64.5764 12.845C64.561 12.6968 64.5971 12.5477 64.6785 12.4229ZM71.7332 44.1269C71.0498 44.9757 70.6771 46.0326 70.6771 47.1223C70.6771 48.212 71.0498 49.2689 71.7332 50.1176C71.8066 50.2286 71.8394 50.3616 71.826 50.494C71.8126 50.6264 71.7539 50.7502 71.6598 50.8443C71.5657 50.9384 71.442 50.9971 71.3096 51.0104C71.1772 51.0238 71.0442 50.991 70.9332 50.9176C70.0846 50.2343 69.028 49.8617 67.9385 49.8617C66.8491 49.8617 65.7924 50.2343 64.9438 50.9176C64.8328 50.991 64.6999 51.0238 64.5674 51.0104C64.435 50.9971 64.3113 50.9384 64.2172 50.8443C64.1231 50.7502 64.0644 50.6264 64.051 50.494C64.0376 50.3616 64.0704 50.2286 64.1438 50.1176C64.8272 49.2689 65.1999 48.212 65.1999 47.1223C65.1999 46.0326 64.8272 44.9757 64.1438 44.1269C64.0725 44.016 64.0415 43.8839 64.0559 43.7528C64.0702 43.6217 64.1292 43.4995 64.2228 43.4066C64.3165 43.3137 64.4392 43.2558 64.5704 43.2425C64.7017 43.2292 64.8335 43.2614 64.9438 43.3336C65.7924 44.0169 66.8491 44.3895 67.9385 44.3895C69.028 44.3895 70.0846 44.0169 70.9332 43.3336C71.0435 43.2614 71.1754 43.2292 71.3066 43.2425C71.4378 43.2558 71.5605 43.3137 71.6542 43.4066C71.7478 43.4995 71.8068 43.6217 71.8211 43.7528C71.8355 43.8839 71.8045 44.016 71.7332 44.1269Z" fill="#F2CE36"/>
<path d="M77.5587 29.36C77.6394 29.4854 77.675 29.6345 77.6598 29.7829C77.6445 29.9312 77.5793 30.07 77.4748 30.1763C77.3703 30.2827 77.2327 30.3504 77.0846 30.3683C76.9365 30.3861 76.7868 30.3531 76.66 30.2746C74.04 28.6746 72.4373 28.6746 69.816 30.2746C69.6885 30.3505 69.5394 30.3817 69.3922 30.3632C69.245 30.3448 69.1081 30.2778 69.0033 30.1728C68.8985 30.0678 68.8317 29.9309 68.8134 29.7837C68.7952 29.6364 68.8266 29.4873 68.9027 29.36C70.5027 26.74 70.5027 25.1373 68.9027 22.516C68.8247 22.3893 68.792 22.2399 68.81 22.0922C68.8279 21.9445 68.8954 21.8073 69.0015 21.7029C69.1075 21.5986 69.2458 21.5333 69.3938 21.5178C69.5417 21.5022 69.6906 21.5373 69.816 21.6173C72.4373 23.2173 74.04 23.2173 76.66 21.6173C76.7849 21.5374 76.9334 21.5027 77.0808 21.5187C77.2282 21.5347 77.3657 21.6006 77.4705 21.7055C77.5754 21.8103 77.6412 21.9478 77.6573 22.0952C77.6733 22.2426 77.6385 22.391 77.5587 22.516C75.956 25.1333 75.956 26.74 77.5587 29.36Z" fill="#0C94EA"/>
<path d="M56.3826 8.18413C56.4626 8.30956 56.4977 8.45841 56.4822 8.60636C56.4666 8.75431 56.4013 8.8926 56.297 8.99865C56.1927 9.10469 56.0554 9.1722 55.9078 9.19015C55.7601 9.2081 55.6107 9.17542 55.484 9.09746C52.8626 7.49746 51.26 7.49746 48.64 9.09746C48.5126 9.17352 48.3635 9.20492 48.2163 9.18669C48.0691 9.16846 47.9321 9.10164 47.8271 8.99682C47.7222 8.892 47.6552 8.75516 47.6367 8.60796C47.6183 8.46076 47.6494 8.31161 47.7253 8.18413C49.3253 5.5628 49.3253 3.96013 47.7253 1.34013C47.6468 1.21331 47.6138 1.06358 47.6317 0.915523C47.6495 0.767464 47.7172 0.629879 47.8236 0.525361C47.93 0.420843 48.0687 0.355604 48.2171 0.340359C48.3654 0.325113 48.5146 0.360767 48.64 0.441464C51.26 2.04146 52.8626 2.04146 55.484 0.441464C55.6089 0.361614 55.7574 0.326824 55.9048 0.342855C56.0522 0.358886 56.1897 0.424777 56.2945 0.529617C56.3993 0.634457 56.4652 0.771958 56.4813 0.919355C56.4973 1.06675 56.4625 1.2152 56.3826 1.34013C54.78 3.96013 54.78 5.5628 56.3826 8.18413Z" fill="#5E4EF9"/>
<path d="M34.6666 7.06127C33.9833 7.9098 33.6107 8.96649 33.6107 10.0559C33.6107 11.1454 33.9833 12.2021 34.6666 13.0506C34.7388 13.161 34.7709 13.2928 34.7577 13.424C34.7444 13.5552 34.6865 13.6779 34.5936 13.7716C34.5007 13.8653 34.3785 13.9242 34.2474 13.9386C34.1163 13.953 33.9842 13.9219 33.8732 13.8506C33.0245 13.1672 31.9676 12.7946 30.8779 12.7946C29.7882 12.7946 28.7313 13.1672 27.8826 13.8506C27.7715 13.924 27.6386 13.9568 27.5062 13.9434C27.3738 13.9301 27.25 13.8714 27.1559 13.7773C27.0618 13.6831 27.0031 13.5594 26.9897 13.427C26.9764 13.2946 27.0092 13.1616 27.0826 13.0506C27.7659 12.2021 28.1384 11.1454 28.1384 10.0559C28.1384 8.96649 27.7659 7.9098 27.0826 7.06127C27.0092 6.95026 26.9764 6.81729 26.9897 6.68488C27.0031 6.55246 27.0618 6.42873 27.1559 6.33463C27.25 6.24052 27.3738 6.18181 27.5062 6.16845C27.6386 6.15508 27.7715 6.18787 27.8826 6.26127C28.7313 6.94468 29.7882 7.3173 30.8779 7.3173C31.9676 7.3173 33.0245 6.94468 33.8732 6.26127C33.9842 6.18997 34.1163 6.15891 34.2474 6.17329C34.3785 6.18767 34.5007 6.24662 34.5936 6.34028C34.6865 6.43393 34.7444 6.55663 34.7577 6.68786C34.7709 6.81909 34.7388 6.9509 34.6666 7.06127Z" fill="#0C94EA"/>
<path d="M25.0532 69.0934L15.9732 72.6001C14.0224 71.0402 12.1616 69.3709 10.3999 67.6001C8.62913 65.8384 6.95978 63.9777 5.3999 62.0268L8.90657 52.9468L25.0532 69.0934Z" fill="#F2CE36"/>
<path d="M34.3065 65.52L25.0532 69.0934C18.7781 64.6849 13.3149 59.2218 8.90649 52.9467L12.4798 43.6934L34.3065 65.52Z" fill="#0C94EA"/>
<path d="M44.0666 61.7336V61.7469L34.3066 65.5203C25.4954 59.9623 18.038 52.5049 12.48 43.6936L16.2533 33.9336H16.2666L44.0666 61.7336Z" fill="#F2CE36"/>
<path d="M44.0665 61.747V61.7337C38.1658 58.6342 32.7708 54.6553 28.0665 49.9337C23.3448 45.2293 19.366 39.8343 16.2665 33.9337H16.2532L20.9998 21.667L56.3332 57.0003L44.0665 61.747Z" fill="#0C94EA"/>
<path d="M56.3333 57.0003C56.3333 57.0003 49.2667 57.0003 35.1333 42.875C21 28.7497 21 21.667 21 21.667C21 21.667 28.0667 21.667 42.188 35.8097C56.3093 49.9523 56.3333 57.0003 56.3333 57.0003Z" fill="#005388"/>
<path d="M47.8199 31.5133C47.5562 31.5132 47.2985 31.435 47.0793 31.2885C46.86 31.142 46.6892 30.9338 46.5883 30.6902C46.4874 30.4466 46.461 30.1785 46.5124 29.9199C46.5638 29.6613 46.6908 29.4238 46.8772 29.2373L59.5852 16.5279C59.7091 16.4041 59.8561 16.3058 60.018 16.2388C60.1799 16.1717 60.3533 16.1372 60.5285 16.1372C60.7037 16.1372 60.8772 16.1717 61.0391 16.2388C61.2009 16.3058 61.348 16.4041 61.4719 16.5279C61.5957 16.6518 61.694 16.7989 61.7611 16.9608C61.8281 17.1226 61.8626 17.2961 61.8626 17.4713C61.8626 17.6465 61.8281 17.82 61.7611 17.9818C61.694 18.1437 61.5957 18.2907 61.4719 18.4146L48.7625 31.1226C48.5125 31.3727 48.1735 31.5132 47.8199 31.5133Z" fill="#5E4EF9"/>
<path d="M67.94 38.9252C67.6786 38.9257 67.423 38.8486 67.2053 38.7039C65.3398 37.5795 63.2366 36.9081 61.0645 36.7437C58.8925 36.5793 56.7122 36.9264 54.6987 37.7572C54.3755 37.8863 54.0147 37.884 53.6933 37.7507C53.3718 37.6175 53.1152 37.3638 52.9782 37.0439C52.8413 36.724 52.8348 36.3632 52.9602 36.0386C53.0856 35.714 53.3329 35.4513 53.6493 35.3066C56.0703 34.3042 58.694 33.8883 61.3063 34.0926C63.9186 34.297 66.4457 35.1159 68.6813 36.4826C68.9195 36.6414 69.1003 36.8727 69.1968 37.1422C69.2934 37.4117 69.3006 37.7052 69.2175 37.9791C69.1344 38.2531 68.9652 38.493 68.7352 38.6634C68.5051 38.8338 68.2263 38.9256 67.94 38.9252Z" fill="#0C94EA"/>
<path d="M41.4678 25.1586C41.2871 25.1594 41.1082 25.1226 40.9425 25.0507C40.6179 24.9113 40.3618 24.6488 40.2306 24.3208C40.0993 23.9928 40.1036 23.6261 40.2425 23.3013C41.0745 21.288 41.4223 19.1075 41.2579 16.9353C41.0935 14.7631 40.4214 12.6598 39.2958 10.7947C39.1989 10.6488 39.1317 10.4853 39.098 10.3134C39.0642 10.1416 39.0647 9.9648 39.0993 9.79314C39.1692 9.44644 39.3739 9.14171 39.6685 8.94598C39.9631 8.75025 40.3233 8.67956 40.67 8.74945C40.8417 8.78405 41.0048 8.85213 41.1502 8.94979C41.2956 9.04746 41.4203 9.1728 41.5172 9.31865C42.8836 11.5544 43.7024 14.0814 43.9068 16.6937C44.1111 19.306 43.6953 21.9296 42.6932 24.3507C42.5904 24.5904 42.4195 24.7948 42.2017 24.9384C41.9839 25.0821 41.7287 25.1586 41.4678 25.1586Z" fill="#F2CE36"/>
<path d="M59.4692 30.4533C59.1404 30.4532 58.8232 30.3316 58.5786 30.1119C58.3339 29.8922 58.1791 29.5898 58.1439 29.2628C58.1087 28.9359 58.1955 28.6074 58.3877 28.3406C58.5799 28.0738 58.864 27.8874 59.1852 27.8173L59.4159 27.7666C59.5887 27.7241 59.7683 27.7166 59.944 27.7446C60.1198 27.7726 60.2882 27.8354 60.4392 27.9295C60.5903 28.0236 60.721 28.1469 60.8237 28.2923C60.9263 28.4377 60.9988 28.6021 61.0369 28.7759C61.075 28.9498 61.0779 29.1295 61.0455 29.3045C61.013 29.4794 60.9459 29.6461 60.848 29.7948C60.7501 29.9434 60.6235 30.0709 60.4755 30.1698C60.3276 30.2687 60.1613 30.337 59.9866 30.3706L59.7546 30.4213C59.6609 30.4424 59.5652 30.4531 59.4692 30.4533Z" fill="#0C94EA"/>
<path d="M48.8813 19.8627C48.6821 19.8627 48.4854 19.8181 48.3058 19.7321C48.1261 19.6461 47.9679 19.5209 47.843 19.3657C47.718 19.2106 47.6294 19.0294 47.5837 18.8356C47.5379 18.6417 47.5362 18.44 47.5786 18.2454L47.6293 18.0134C47.663 17.8386 47.7312 17.6724 47.8302 17.5244C47.9291 17.3765 48.0566 17.2498 48.2052 17.152C48.3538 17.0541 48.5205 16.9869 48.6955 16.9545C48.8705 16.922 49.0502 16.9249 49.224 16.963C49.3979 17.0011 49.5623 17.0736 49.7077 17.1763C49.8531 17.2789 49.9764 17.4097 50.0705 17.5607C50.1645 17.7118 50.2274 17.8802 50.2554 18.0559C50.2833 18.2317 50.2758 18.4112 50.2333 18.584L50.1826 18.8147C50.1176 19.1115 49.9532 19.3772 49.7165 19.5678C49.4798 19.7584 49.1852 19.8625 48.8813 19.8627ZM35.112 20.9227C34.8134 20.9226 34.5236 20.8222 34.2888 20.6378C34.0541 20.4533 33.8881 20.1954 33.8173 19.9054L33.772 19.7174C33.6947 19.3761 33.7546 19.0181 33.9389 18.7206C34.1231 18.4231 34.417 18.21 34.757 18.1273C35.097 18.0445 35.4559 18.0987 35.7563 18.2782C36.0567 18.4577 36.2744 18.7481 36.3626 19.0867L36.4093 19.2747C36.4507 19.4449 36.4581 19.6216 36.4312 19.7947C36.4042 19.9677 36.3435 20.1338 36.2523 20.2834C36.1612 20.4329 36.0415 20.5631 35.9 20.6664C35.7586 20.7697 35.5982 20.8441 35.428 20.8854C35.3246 20.9109 35.2184 20.9234 35.112 20.9227Z" fill="#F2CE36"/>
<path d="M58.5999 44.2657C58.4934 44.2657 58.3874 44.2532 58.2839 44.2284L58.0959 44.183C57.7522 44.0994 57.4557 43.8827 57.2718 43.5805C57.0879 43.2783 57.0316 42.9154 57.1152 42.5717C57.1988 42.228 57.4156 41.9316 57.7178 41.7477C58.02 41.5637 58.3828 41.5074 58.7265 41.591L58.9145 41.6377C59.2306 41.7155 59.5072 41.9062 59.6924 42.1739C59.8775 42.4416 59.9584 42.7677 59.9197 43.0909C59.881 43.4141 59.7254 43.7119 59.4823 43.9283C59.2392 44.1447 58.9253 44.2647 58.5999 44.2657Z" fill="#0C94EA"/>
</svg>
