<svg width="14" height="14" viewBox="0 0 14 14" fill="none" xmlns="http://www.w3.org/2000/svg">
<path d="M13.9635 5.09674C13.9187 4.958 13.8341 4.83551 13.7202 4.74453C13.6063 4.65356 13.4681 4.59811 13.3229 4.58512L9.28215 4.21819L7.68433 0.478285C7.56648 0.204212 7.29817 0.0268555 7.00006 0.0268555C6.70195 0.0268555 6.43362 0.204239 6.31582 0.478969L4.71798 4.21821L0.67655 4.58512C0.531519 4.59841 0.393577 4.65396 0.279825 4.74491C0.166074 4.83585 0.0815158 4.95818 0.0366352 5.09674C-0.0555429 5.38024 0.0295804 5.69118 0.254215 5.88718L3.30859 8.56584L2.40792 12.5333C2.34202 12.825 2.45522 13.1265 2.69728 13.3015C2.82735 13.3955 2.97958 13.4433 3.13307 13.4433C3.26541 13.4433 3.39667 13.4076 3.51452 13.3371L7.00006 11.2539L10.4843 13.3371C10.7393 13.4906 11.0607 13.4765 11.3022 13.3015C11.4205 13.2159 11.5109 13.0974 11.5624 12.9608C11.6138 12.8243 11.624 12.6756 11.5916 12.5333L10.6909 8.56584L13.7453 5.88773C13.8552 5.79177 13.9344 5.66564 13.9732 5.52501C14.012 5.38438 14.0086 5.23546 13.9635 5.09674Z" fill="#FFC107"/>
</svg>
