<svg width="110" height="110" viewBox="0 0 110 110" fill="none" xmlns="http://www.w3.org/2000/svg">
<circle cx="55" cy="55" r="54" fill="white" stroke="#28A945" stroke-width="2"/>
<path fill-rule="evenodd" clip-rule="evenodd" d="M70.7921 43.3565C70.975 43.5166 71.1242 43.7114 71.231 43.9296C71.3379 44.1479 71.4003 44.3852 71.4146 44.6278C71.429 44.8704 71.3949 45.1134 71.3145 45.3427C71.2341 45.572 71.1089 45.783 70.9461 45.9635L51.6705 67.3567C51.507 67.5378 51.309 67.6845 51.088 67.7882C50.8671 67.8918 50.6277 67.9503 50.3838 67.9602C50.14 67.9701 49.8966 67.9312 49.668 67.8459C49.4394 67.7605 49.2301 67.6303 49.0525 67.463L37.8985 56.9635C37.5639 56.644 37.3612 56.2106 37.3307 55.7489C37.3001 55.2873 37.4439 54.831 37.7335 54.4702C37.8898 54.2746 38.0842 54.1127 38.305 53.9946C38.5258 53.8764 38.7682 53.8043 39.0177 53.7827C39.2672 53.7611 39.5184 53.7904 39.7562 53.8689C39.994 53.9474 40.2134 54.0733 40.401 54.2392L49.0543 62.0235C49.4156 62.3487 49.8913 62.5171 50.3767 62.4916C50.8622 62.4662 51.3176 62.249 51.643 61.8878L68.2218 43.505C68.5445 43.1472 68.9951 42.9308 69.4761 42.9027C69.9572 42.8746 70.4299 43.0369 70.7921 43.3547V43.3565Z" fill="#28A945"/>
</svg>
