<svg width="14" height="2" viewBox="0 0 14 2" fill="none" xmlns="http://www.w3.org/2000/svg">
<path d="M0.83989 1.84008H13.1598C13.2702 1.84008 13.3794 1.81835 13.4814 1.77612C13.5833 1.7339 13.6759 1.67201 13.7539 1.59399C13.8319 1.51597 13.8938 1.42334 13.936 1.32141C13.9782 1.21947 13.9999 1.11022 13.9999 0.999886C13.9999 0.889561 13.9782 0.780313 13.936 0.678383C13.8938 0.576453 13.8319 0.483837 13.7539 0.405826C13.6759 0.327814 13.5833 0.265935 13.4813 0.223722C13.3794 0.181509 13.2702 0.15979 13.1598 0.159805H0.83989C0.618774 0.162392 0.407591 0.252045 0.252145 0.40932C0.0966983 0.566595 0.00952148 0.778812 0.00952148 0.999943C0.00952148 1.22107 0.0966983 1.43329 0.252145 1.59057C0.407591 1.74784 0.618774 1.83749 0.83989 1.84008Z" fill="#687E8D"/>
</svg>
