<svg width="14" height="24" viewBox="0 0 14 24" fill="none" xmlns="http://www.w3.org/2000/svg">
<path fill-rule="evenodd" clip-rule="evenodd" d="M10.2825 3.54483e-07H7.48498C7.43567 -6.74022e-05 7.38683 0.00957886 7.34125 0.0283883C7.29567 0.0471977 7.25423 0.0748019 7.21932 0.109624C7.18441 0.144447 7.15669 0.185806 7.13776 0.231339C7.11884 0.276873 7.10906 0.325689 7.109 0.375V1.725H6.58269C6.48345 1.72534 6.38839 1.76499 6.31834 1.83528C6.24829 1.90557 6.20895 2.00076 6.20895 2.1V5.6085H1.15798C0.875094 5.60866 0.603807 5.72097 0.403584 5.92082C0.203362 6.12066 0.0905385 6.39174 0.0898438 6.67462V22.9335C0.090427 23.2164 0.203201 23.4876 0.403435 23.6875C0.60367 23.8875 0.875021 23.9998 1.15798 24H11.8194C12.1024 23.9998 12.3737 23.8875 12.574 23.6875C12.7742 23.4876 12.887 23.2164 12.8876 22.9334V11.1879H13.3453C13.4948 11.188 13.6382 11.1286 13.744 11.023C13.8497 10.9173 13.9092 10.7739 13.9093 10.6245V8.14477C13.9092 8.07072 13.8946 7.99741 13.8663 7.92901C13.8379 7.86061 13.7964 7.79846 13.744 7.74612C13.6917 7.69377 13.6295 7.65225 13.5611 7.62393C13.4927 7.59561 13.4194 7.58103 13.3453 7.58105H12.8876V6.67458C12.8869 6.39169 12.774 6.12061 12.5738 5.92077C12.3736 5.72092 12.1023 5.60861 11.8194 5.60845H11.5585V2.1C11.5585 2.00076 11.5191 1.90557 11.4491 1.83528C11.379 1.76499 11.284 1.72534 11.1847 1.725H10.6584V0.375C10.6584 0.325691 10.6486 0.276876 10.6297 0.231343C10.6108 0.18581 10.583 0.144451 10.5481 0.109627C10.5132 0.0748041 10.4718 0.0471992 10.4262 0.0283892C10.3806 0.0095792 10.3318 -6.74003e-05 10.2825 3.54483e-07ZM9.24955 2.475H9.99955V5.60869H9.24955V2.475ZM8.51755 5.60869H7.76802V2.475H8.51773V5.60869H8.51755ZM2.85416 23.25H1.6467L6.54514 19.3684V10.2392L1.67769 6.38245C1.66861 6.37465 1.65974 6.3666 1.65111 6.35831H2.85416L7.15325 9.76406C7.19727 9.79939 7.23282 9.84412 7.25731 9.89498C7.2818 9.94584 7.2946 10.0015 7.29477 10.058V19.5497C7.29455 19.6062 7.28172 19.6618 7.25724 19.7127C7.23276 19.7635 7.19723 19.8083 7.15325 19.8436L2.85416 23.25Z" fill="white"/>
</svg>
