<svg width="14" height="24" viewBox="0 0 14 24" fill="none" xmlns="http://www.w3.org/2000/svg">
<path d="M7.70585 15.4751C8.35441 15.3096 9.43074 14.9564 10.468 14.2614C11.9869 13.2435 13.6971 11.2981 13.2309 7.80653C13.2075 7.4725 12.9659 4.53758 11.5193 1.13565L11.3366 0.706055H2.66331L2.48063 1.13565C1.03399 4.53773 0.792296 7.47264 0.769002 7.80653C0.302837 11.2981 2.01305 13.2435 3.53197 14.2614C4.56919 14.9564 5.64566 15.3096 6.29408 15.4751V21.3644L1.66886 21.8869L1.74806 23.2943H12.2438L12.323 21.887L7.70585 21.3654V15.4751ZM4.31775 13.0886C2.58877 11.93 1.86665 10.2088 2.17103 7.97241L2.17611 7.92116C2.17794 7.89363 2.35851 5.23867 3.60284 2.11782H10.3972C11.6414 5.23867 11.822 7.89363 11.8237 7.9206L11.8289 7.97255C12.5057 12.9445 7.79832 14.0397 7.00138 14.1885C6.65056 14.1211 5.45013 13.8475 4.31775 13.0886Z" fill="white"/>
<path d="M11.1294 8.06837L11.1224 8.01613L11.1195 7.9639C11.1195 7.95684 11.104 7.73237 11.0518 7.34131H2.94825C2.89602 7.73237 2.88049 7.95825 2.88049 7.96672L2.87767 8.01613L2.87061 8.06837C2.6052 10.0138 3.18684 11.4495 4.6452 12.4575C5.10684 12.7766 5.59249 13.0067 6.01461 13.1677C6.64708 13.4091 7.35014 13.4091 7.98402 13.1677C8.40614 13.0067 8.89178 12.778 9.35484 12.4575C10.8132 11.4495 11.3948 10.0138 11.1294 8.06837Z" fill="white"/>
</svg>
